<?xml version="1.0" encoding="UTF-8"?>
<svg version="1.1" xmlns="http://www.w3.org/2000/svg" width="1519" height="1511">
<path d="M0 0 C244.2 0 488.4 0 740 0 C736.23369858 4.39401832 732.61824775 8.50680009 728.55594224 12.56940693 C728.03938272 13.08736876 727.52282321 13.60533059 726.99061038 14.13898823 C725.26841577 15.8646476 723.54270449 17.58674498 721.81697369 19.30886745 C720.55999234 20.56689258 719.30323004 21.82513661 718.04666647 23.08357903 C714.58740882 26.54673418 711.12504176 30.006766 707.66216537 33.46630218 C703.89758707 37.22834642 700.13590499 40.99328473 696.37385446 44.75785643 C689.77823374 51.35709199 683.18075032 57.95446075 676.58204842 64.55061531 C666.76997587 74.35891029 656.96075696 84.17005543 647.15210303 93.981769 C630.65267122 110.48616523 614.15084781 126.98816799 597.64757347 143.48872185 C597.14507487 143.99113765 596.64257628 144.49355345 596.12485045 145.01119397 C595.36990118 145.76601885 595.36990118 145.76601885 594.5997004 146.53609272 C579.27228997 161.86098093 563.94581459 177.18680352 548.62026405 192.51355171 C547.59437065 193.53952259 546.56847709 194.56549331 545.54258337 195.59146387 C541.4201054 199.7142523 537.29763153 203.83704483 533.17516365 207.95984334 C521.65143576 219.48448825 510.12753465 231.00895996 498.60349751 242.53329563 C498.07872294 243.05808385 497.55394837 243.58287206 497.01327154 244.12356295 C480.29120976 260.84603401 463.56837996 277.56773681 446.84502697 294.28891659 C446.03137008 295.10246811 446.03137008 295.10246811 445.20127567 295.93245501 C436.39212145 304.74046425 427.58293001 313.54843624 418.77373541 322.35640509 C383.81910103 357.30618094 348.8670116 392.25849982 313.91723633 427.21313477 C305.10659113 436.02500111 296.29594087 444.83686239 287.48525524 453.64868832 C286.67155351 454.46249572 286.67155351 454.46249572 285.84141336 455.29274367 C269.13242603 472.0038861 252.42281902 488.7144087 235.71253681 505.42425632 C235.1882137 505.94856586 234.66389058 506.47287539 234.12367889 507.01307309 C222.61587923 518.52056031 211.10791903 530.02788697 199.59981392 541.53506871 C195.48257025 545.65198323 191.36533462 549.76890578 187.24810129 553.88583063 C186.22380262 554.91005192 185.19950327 555.93427253 184.17520325 556.95849247 C168.84745557 572.28504518 153.52081598 587.61270524 138.19492743 602.94111699 C137.69201486 603.44411236 137.18910228 603.94710773 136.67094994 604.46534538 C135.91796726 605.21845208 135.91796726 605.21845208 135.14977281 605.98677306 C118.24646859 622.89283098 101.34128729 639.79700948 84.43396523 656.69904935 C74.67670477 666.45336235 64.92083809 676.20906455 55.16693047 685.96673028 C48.66470414 692.47118651 42.16068456 698.97384581 35.65515636 705.47499962 C31.94006956 709.18769073 28.22580429 712.90119426 24.51369717 716.61686479 C21.14488301 719.98888011 17.77382668 723.35863597 14.40087191 726.72650939 C13.18086023 727.94550377 11.96170769 729.16535869 10.74346563 730.38612161 C9.10368759 732.02905499 7.46092783 733.66894469 5.81731194 735.30803722 C4.447554 736.67769353 4.447554 736.67769353 3.05012418 738.07501965 C1 740 1 740 0 740 C0 495.8 0 251.6 0 0 Z " fill="#0F5871" transform="translate(773,771)"/>
<path d="M0 0 C244.2 0 488.4 0 740 0 C740 244.2 740 488.4 740 740 C735.60598168 736.23369858 731.49319991 732.61824775 727.43059307 728.55594224 C726.91263124 728.03938272 726.39466941 727.52282321 725.86101177 726.99061038 C724.1353524 725.26841577 722.41325502 723.54270449 720.69113255 721.81697369 C719.43310742 720.55999234 718.17486339 719.30323004 716.91642097 718.04666647 C713.45326582 714.58740882 709.993234 711.12504176 706.53369782 707.66216537 C702.77165358 703.89758707 699.00671527 700.13590499 695.24214357 696.37385446 C688.64290801 689.77823374 682.04553925 683.18075032 675.44938469 676.58204842 C665.64108971 666.76997587 655.82994457 656.96075696 646.018231 647.15210303 C629.51383477 630.65267122 613.01183201 614.15084781 596.51127815 597.64757347 C596.00886235 597.14507487 595.50644655 596.64257628 594.98880603 596.12485045 C594.48558944 595.62155094 593.98237285 595.11825142 593.46390728 594.5997004 C578.13901907 579.27228997 562.81319648 563.94581459 547.48644829 548.62026405 C546.46047741 547.59437065 545.43450669 546.56847709 544.40853613 545.54258337 C540.2857477 541.4201054 536.16295517 537.29763153 532.04015666 533.17516365 C520.51551175 521.65143576 508.99104004 510.12753465 497.46670437 498.60349751 C496.94191615 498.07872294 496.41712794 497.55394837 495.87643705 497.01327154 C479.15396599 480.29120976 462.43226319 463.56837996 445.71108341 446.84502697 C444.89753189 446.03137008 444.89753189 446.03137008 444.06754499 445.20127567 C435.25953575 436.39212145 426.45156376 427.58293001 417.64359491 418.77373541 C382.69381906 383.81910103 347.74150018 348.8670116 312.78686523 313.91723633 C303.97499889 305.10659113 295.16313761 296.29594087 286.35131168 287.48525524 C285.53750428 286.67155351 285.53750428 286.67155351 284.70725633 285.84141336 C267.9961139 269.13242603 251.2855913 252.42281902 234.57574368 235.71253681 C233.78927938 234.92605214 233.78927938 234.92605214 232.98692691 234.12367889 C221.47943969 222.61587923 209.97211303 211.10791903 198.46493129 199.59981392 C194.34801677 195.48257025 190.23109422 191.36533462 186.11416937 187.24810129 C185.08994808 186.22380262 184.06572747 185.19950327 183.04150753 184.17520325 C167.71495482 168.84745557 152.38729476 153.52081598 137.05888301 138.19492743 C136.30438995 137.44055857 136.30438995 137.44055857 135.53465462 136.67094994 C135.03258348 136.16896148 134.53051235 135.66697303 134.01322694 135.14977281 C117.10716902 118.24646859 100.20299052 101.34128729 83.30095065 84.43396523 C73.54663765 74.67670477 63.79093545 64.92083809 54.03326972 55.16693047 C47.52881349 48.66470414 41.02615419 42.16068456 34.52500038 35.65515636 C30.81230927 31.94006956 27.09880574 28.22580429 23.38313521 24.51369717 C20.01111989 21.14488301 16.64136403 17.77382668 13.27349061 14.40087191 C12.05449623 13.18086023 10.83464131 11.96170769 9.61387839 10.74346563 C7.97094501 9.10368759 6.33105531 7.46092783 4.69196278 5.81731194 C3.77885858 4.90413998 2.86575437 3.99096802 1.92498035 3.05012418 C0 1 0 1 0 0 Z " fill="#2EEEE1" transform="translate(0,771)"/>
<path d="M0 0 C4.39401832 3.76630142 8.50680009 7.38175225 12.56940693 11.44405776 C13.08736876 11.96061728 13.60533059 12.47717679 14.13898823 13.00938962 C15.8646476 14.73158423 17.58674498 16.45729551 19.30886745 18.18302631 C20.56689258 19.44000766 21.82513661 20.69676996 23.08357903 21.95333353 C26.54673418 25.41259118 30.006766 28.87495824 33.46630218 32.33783463 C37.22834642 36.10241293 40.99328473 39.86409501 44.75785643 43.62614554 C51.35709199 50.22176626 57.95446075 56.81924968 64.55061531 63.41795158 C74.35891029 73.23002413 84.17005543 83.03924304 93.981769 92.84789697 C110.48616523 109.34732878 126.98816799 125.84915219 143.48872185 142.35242653 C143.99113765 142.85492513 144.49355345 143.35742372 145.01119397 143.87514955 C145.76601885 144.63009882 145.76601885 144.63009882 146.53609272 145.4002996 C161.86098093 160.72771003 177.18680352 176.05418541 192.51355171 191.37973595 C193.53952259 192.40562935 194.56549331 193.43152291 195.59146387 194.45741663 C199.7142523 198.5798946 203.83704483 202.70236847 207.95984334 206.82483635 C219.48448825 218.34856424 231.00895996 229.87246535 242.53329563 241.39650249 C243.05808385 241.92127706 243.58287206 242.44605163 244.12356295 242.98672846 C260.84603401 259.70879024 277.56773681 276.43162004 294.28891659 293.15497303 C295.10246811 293.96862992 295.10246811 293.96862992 295.93245501 294.79872433 C304.74046425 303.60787855 313.54843624 312.41706999 322.35640509 321.22626459 C357.30618094 356.18089897 392.25849982 391.1329884 427.21313477 426.08276367 C436.02500111 434.89340887 444.83686239 443.70405913 453.64868832 452.51474476 C454.46249572 453.32844649 454.46249572 453.32844649 455.29274367 454.15858664 C472.0038861 470.86757397 488.7144087 487.57718098 505.42425632 504.28746319 C505.94856586 504.8117863 506.47287539 505.33610942 507.01307309 505.87632111 C518.52056031 517.38412077 530.02788697 528.89208097 541.53506871 540.40018608 C545.65198323 544.51742975 549.76890578 548.63466538 553.88583063 552.75189871 C554.91005192 553.77619738 555.93427253 554.80049673 556.95849247 555.82479675 C572.28504518 571.15254443 587.61270524 586.47918402 602.94111699 601.80507257 C603.44411236 602.30798514 603.94710773 602.81089772 604.46534538 603.32905006 C604.96741652 603.83103852 605.46948765 604.33302697 605.98677306 604.85022719 C622.89283098 621.75353141 639.79700948 638.65871271 656.69904935 655.56603477 C666.45336235 665.32329523 676.20906455 675.07916191 685.96673028 684.83306953 C692.47118651 691.33529586 698.97384581 697.83931544 705.47499962 704.34484364 C709.18769073 708.05993044 712.90119426 711.77419571 716.61686479 715.48630283 C719.98888011 718.85511699 723.35863597 722.22617332 726.72650939 725.59912809 C727.94550377 726.81913977 729.16535869 728.03829231 730.38612161 729.25653437 C732.02905499 730.89631241 733.66894469 732.53907217 735.30803722 734.18268806 C736.67769353 735.552446 736.67769353 735.552446 738.07501965 736.94987582 C740 739 740 739 740 740 C495.8 740 251.6 740 0 740 C0 495.8 0 251.6 0 0 Z " fill="#EB5F62" transform="translate(773,0)"/>
<path d="M0 0 C0 244.2 0 488.4 0 740 C-244.2 740 -488.4 740 -740 740 C-736.23369858 735.60598168 -732.61824775 731.49319991 -728.55594224 727.43059307 C-728.03938272 726.91263124 -727.52282321 726.39466941 -726.99061038 725.86101177 C-725.26841577 724.1353524 -723.54270449 722.41325502 -721.81697369 720.69113255 C-720.55999234 719.43310742 -719.30323004 718.17486339 -718.04666647 716.91642097 C-714.58740882 713.45326582 -711.12504176 709.993234 -707.66216537 706.53369782 C-703.89758707 702.77165358 -700.13590499 699.00671527 -696.37385446 695.24214357 C-689.77823374 688.64290801 -683.18075032 682.04553925 -676.58204842 675.44938469 C-666.76997587 665.64108971 -656.96075696 655.82994457 -647.15210303 646.018231 C-630.65267122 629.51383477 -614.15084781 613.01183201 -597.64757347 596.51127815 C-597.14507487 596.00886235 -596.64257628 595.50644655 -596.12485045 594.98880603 C-595.62155094 594.48558944 -595.11825142 593.98237285 -594.5997004 593.46390728 C-579.27228997 578.13901907 -563.94581459 562.81319648 -548.62026405 547.48644829 C-547.59437065 546.46047741 -546.56847709 545.43450669 -545.54258337 544.40853613 C-541.4201054 540.2857477 -537.29763153 536.16295517 -533.17516365 532.04015666 C-521.65143576 520.51551175 -510.12753465 508.99104004 -498.60349751 497.46670437 C-498.07872294 496.94191615 -497.55394837 496.41712794 -497.01327154 495.87643705 C-480.29120976 479.15396599 -463.56837996 462.43226319 -446.84502697 445.71108341 C-446.03137008 444.89753189 -446.03137008 444.89753189 -445.20127567 444.06754499 C-436.39212145 435.25953575 -427.58293001 426.45156376 -418.77373541 417.64359491 C-383.81910103 382.69381906 -348.8670116 347.74150018 -313.91723633 312.78686523 C-305.10659113 303.97499889 -296.29594087 295.16313761 -287.48525524 286.35131168 C-286.67155351 285.53750428 -286.67155351 285.53750428 -285.84141336 284.70725633 C-269.13242603 267.9961139 -252.42281902 251.2855913 -235.71253681 234.57574368 C-235.1882137 234.05143414 -234.66389058 233.52712461 -234.12367889 232.98692691 C-222.61587923 221.47943969 -211.10791903 209.97211303 -199.59981392 198.46493129 C-195.48257025 194.34801677 -191.36533462 190.23109422 -187.24810129 186.11416937 C-186.22380262 185.08994808 -185.19950327 184.06572747 -184.17520325 183.04150753 C-168.84745557 167.71495482 -153.52081598 152.38729476 -138.19492743 137.05888301 C-137.69201486 136.55588764 -137.18910228 136.05289227 -136.67094994 135.53465462 C-136.16896148 135.03258348 -135.66697303 134.53051235 -135.14977281 134.01322694 C-118.24646859 117.10716902 -101.34128729 100.20299052 -84.43396523 83.30095065 C-74.67670477 73.54663765 -64.92083809 63.79093545 -55.16693047 54.03326972 C-48.66470414 47.52881349 -42.16068456 41.02615419 -35.65515636 34.52500038 C-31.94006956 30.81230927 -28.22580429 27.09880574 -24.51369717 23.38313521 C-21.14488301 20.01111989 -17.77382668 16.64136403 -14.40087191 13.27349061 C-13.18086023 12.05449623 -11.96170769 10.83464131 -10.74346563 9.61387839 C-9.10368759 7.97094501 -7.46092783 6.33105531 -5.81731194 4.69196278 C-4.447554 3.32230647 -4.447554 3.32230647 -3.05012418 1.92498035 C-1 -0 -1 -0 0 0 Z " fill="#99060E" transform="translate(740,0)"/>
<path d="M0 0 C0.86625 0.680625 1.7325 1.36125 2.625 2.0625 C3.17285156 2.44535156 3.72070312 2.82820313 4.28515625 3.22265625 C12.5709369 9.46886012 16.86303215 19.31437819 19.625 29.0625 C19.851875 27.763125 20.07875 26.46375 20.3125 25.125 C22.81209311 14.16787953 30.27140166 4.38802783 39.5625 -1.875 C49.85291186 -7.53171763 62.33143946 -9.16122729 73.81054688 -6.41455078 C86.34647484 -2.49199978 95.49085592 5.50072755 103.25170898 15.86254883 C109.78748778 24.43588511 117.97199219 28.55696483 127.515625 33.30859375 C137.12541679 38.22342432 142.34434792 44.28965443 145.78515625 54.5078125 C147.16915569 59.18067081 148.4763333 63.68423582 149 68.5390625 C149.72534238 72.62818018 151.33184929 75.76293879 153.375 79.3125 C154.10767694 80.64071138 154.83813931 81.97014673 155.56640625 83.30078125 C155.92105957 83.9448291 156.27571289 84.58887695 156.64111328 85.25244141 C161.31210574 93.84567667 164.36224828 102.80163734 167.07275391 112.15820312 C167.5706056 113.87493311 168.08691972 115.58628298 168.60546875 117.296875 C171.92859214 129.09162279 171.67881095 139.79777661 166.625 151.0625 C165.43359375 152.8984375 165.43359375 152.8984375 164.3125 154.375 C162.29052203 157.03707972 162.29052203 157.03707972 162.75 160.625 C163.46361784 163.9142196 163.46361784 163.9142196 164.6640625 166.1953125 C166.0306156 170.27275143 165.91488031 174.10448319 165.875 178.375 C165.88273437 179.19162109 165.89046875 180.00824219 165.8984375 180.84960938 C165.86203015 192.27241587 161.87683587 202.73765829 156.0625 212.5 C154.01724839 216.01428682 152.85115301 219.39989251 151.75 223.3125 C146.7856579 240.35873493 137.30927795 250.89553535 122.625 260.0625 C120.69775351 261.1025615 118.7608709 262.12507112 116.8125 263.125 C112.22141111 265.52006227 109.16144189 268.35261113 105.6484375 272.109375 C93.65439271 283.68663831 78.84085769 285.55598557 63.03515625 285.3359375 C56.90914557 285.12458752 52.0087904 284.04265416 46.625 281.0625 C45.70847656 280.588125 44.79195312 280.11375 43.84765625 279.625 C32.64053628 273.22971617 24.23632763 262.45489814 20.625 250.0625 C20.34919137 247.77797193 20.1406214 245.48431617 20 243.1875 C19.88785156 241.45886719 19.88785156 241.45886719 19.7734375 239.6953125 C19.72445312 238.82648438 19.67546875 237.95765625 19.625 237.0625 C19.49544922 238.15304687 19.49544922 238.15304687 19.36328125 239.265625 C17.29102154 254.09463944 11.35274398 267.29524896 -0.8125 276.5 C-14.68210726 285.87447139 -30.81055026 287.32694769 -47.16796875 284.37890625 C-56.18536149 281.56753283 -62.8539957 276.56380495 -69.625 270.125 C-74.43836095 265.62087733 -79.32460415 262.79788828 -85.16796875 259.82421875 C-98.73720076 252.37023137 -107.58673037 240.21160355 -113.375 226.0625 C-113.73605912 224.57344239 -114.05353691 223.07266369 -114.3125 221.5625 C-115.21702277 216.38976042 -117.88442223 212.37235225 -120.62109375 207.95703125 C-126.4311862 198.36843769 -127.55537139 189.97780371 -127.6875 178.9375 C-127.70514404 178.0904248 -127.72278809 177.24334961 -127.7409668 176.37060547 C-127.73474638 170.57204281 -126.60166469 166.40531712 -124.375 161.0625 C-124.4731874 157.03681648 -126.3263795 154.40018341 -128.3203125 150.97265625 C-134.32323448 140.10069756 -134.00939443 127.58744937 -130.828125 115.86328125 C-126.99220683 103.03908072 -122.19458915 90.77396396 -115.7109375 79.0546875 C-112.6167927 73.33890277 -110.83860053 68.30228674 -109.8125 61.9375 C-108.02937145 50.92664884 -104.12041895 43.1508922 -95.375 36.0625 C-91.28069481 33.24681503 -86.97869022 30.89677678 -82.57421875 28.60546875 C-73.06629646 23.62137117 -66.93868635 17.93902762 -60.37890625 9.4921875 C-44.82541379 -9.36604313 -20.69386832 -11.87981329 0 0 Z " fill="#FBF8F8" transform="translate(484.375,384.9375)"/>
<path d="M0 0 C2.02659644 1.52387484 3.95823181 3.12446825 5.890625 4.765625 C11.16861908 8.7532077 14.96284463 11.09516609 21.78515625 11.0703125 C24.14180321 10.72927639 25.36972694 10.02698383 27.328125 8.703125 C30.96016685 6.35396032 33.69845063 6.52966319 37.890625 7.1953125 C39.890625 7.765625 39.890625 7.765625 42.078125 9.453125 C42.67625 9.88625 43.274375 10.319375 43.890625 10.765625 C46.88367385 10.06512421 49.39771209 9.01208146 52.140625 7.640625 C58.064731 5.75568218 63.72699302 6.10781744 69.390625 8.578125 C72.27224009 9.68021638 73.36702521 9.9651728 76.2890625 8.8515625 C77.95724019 7.90959465 79.62124949 6.96021089 81.28125 6.00390625 C85.78933963 3.86458827 90.03726302 3.87330284 94.890625 4.765625 C99.73786262 6.608712 103.83479685 9.64296278 106.234375 14.359375 C107.33388556 18.39091372 107.26817805 22.54367529 107.390625 26.69921875 C107.73536867 34.4128584 110.72114758 39.51140887 114.890625 45.765625 C117.50259833 46.2005569 117.50259833 46.2005569 120.5859375 46.09375 C121.76591309 46.08899658 122.94588867 46.08424316 124.16162109 46.0793457 C125.43344238 46.05831787 126.70526367 46.03729004 128.015625 46.015625 C129.96009521 46.00245239 129.96009521 46.00245239 131.94384766 45.98901367 C138.27255345 45.92595101 144.58510125 45.75995086 150.90625 45.42578125 C152.52055908 45.34118652 152.52055908 45.34118652 154.16748047 45.25488281 C156.18318126 45.13988144 158.19804018 45.00857638 160.21142578 44.85839844 C166.8529383 44.45730409 171.56599703 44.91979741 176.81640625 49.4140625 C181.51866583 55.26870682 183.39154044 59.59335496 183.19921875 67.20703125 C182.43104169 73.57609419 179.12054178 78.51967345 174.12890625 82.453125 C166.3352584 87.02322217 156.71313549 88.42191599 147.890625 89.765625 C147.6643399 91.89680686 147.6643399 91.89680686 149.421875 93.421875 C150.0715625 94.0303125 150.72125 94.63875 151.390625 95.265625 C152.59489592 96.39343428 153.77057089 97.5541379 154.890625 98.765625 C154.890625 99.425625 154.890625 100.085625 154.890625 100.765625 C155.48488281 100.52328125 156.07914063 100.2809375 156.69140625 100.03125 C159.41892648 98.92836468 162.15448206 97.84693115 164.890625 96.765625 C165.82519531 96.3840625 166.75976562 96.0025 167.72265625 95.609375 C173.39454151 93.38821714 177.79492871 92.16960136 183.890625 92.765625 C188.56620953 94.92358709 191.14064897 97.66362214 193.19140625 102.29296875 C194.82734863 108.0781728 195.07065414 114.37871444 193.078125 120.09765625 C188.30902478 128.49325976 179.19141201 135.1326276 170.890625 139.765625 C170.230625 139.765625 169.570625 139.765625 168.890625 139.765625 C168.973125 140.85875 169.055625 141.951875 169.140625 143.078125 C169.18362052 147.91082194 167.55590497 151.75987261 165.66796875 156.15234375 C163.93423761 161.98081679 167.23408801 166.87178133 169.765625 172.015625 C179.60258168 192.53860018 179.8666169 211.33786773 177.09887695 233.62084961 C176.15676753 241.2241171 175.45455948 248.81327121 174.890625 256.453125 C173.16302522 278.70317055 168.19991049 301.43185109 151.890625 317.765625 C137.72953776 329.71520387 122.14362865 333.72533803 103.890625 332.765625 C93.63250053 331.46548248 84.84991974 326.62246122 75.890625 321.765625 C75.22482422 321.40662109 74.55902344 321.04761719 73.87304688 320.67773438 C56.1328895 311.05330882 39.39576795 299.86312957 22.640625 288.640625 C20.79181377 287.40472783 18.94285606 286.16904976 17.09375 284.93359375 C13.57241181 282.58073612 10.05278635 280.22534817 6.53417969 277.8684082 C3.74996304 276.00482707 0.9611846 274.14902523 -1.83886719 272.30932617 C-24.03665289 257.69400359 -41.35288636 238.54227012 -48.421875 212.453125 C-49.03565237 209.46380189 -49.13298654 206.60919196 -49.125 203.5703125 C-48.92545745 193.12679831 -48.92545745 193.12679831 -54.234375 184.515625 C-55.04390625 183.76539063 -55.8534375 183.01515625 -56.6875 182.2421875 C-66.86365479 171.83624857 -69.63921704 156.09807981 -69.52709961 142.11108398 C-68.82387337 119.76877066 -58.9469141 101.75982382 -45.109375 84.765625 C-44.43213379 83.93297119 -44.43213379 83.93297119 -43.74121094 83.08349609 C-41.82782791 80.73971003 -39.90296509 78.4079522 -37.94921875 76.09765625 C-34.67393171 71.94617777 -32.73427581 68.22194757 -31.484375 63.078125 C-31.24460937 62.12550781 -31.00484375 61.17289063 -30.7578125 60.19140625 C-29.39960201 53.01580025 -29.04650622 45.92822114 -28.96875 38.6328125 C-28.9590921 37.90569565 -28.9494342 37.1785788 -28.93948364 36.4294281 C-28.87966848 31.88795965 -28.87966848 31.88795965 -28.85888672 27.34619141 C-28.84447953 17.73659956 -28.62147399 10.49887981 -21.66723633 3.265625 C-15.57493983 -2.3363038 -7.38210862 -4.3199006 0 0 Z " fill="#F9FCFC" transform="translate(458.109375,840.234375)"/>
<path d="M0 0 C1.64510941 0.00015915 3.29022379 0.00585551 4.93530273 0.01586914 C6.23164894 0.01799156 6.23164894 0.01799156 7.55418396 0.02015686 C10.32578941 0.025773 13.09731528 0.0383282 15.86889648 0.05102539 C17.74324428 0.05603831 19.61759334 0.06060158 21.49194336 0.06469727 C26.09679192 0.07574767 30.70158069 0.09302309 35.30639648 0.11352539 C35.31186493 1.68753868 35.31186493 1.68753868 35.31744385 3.29335022 C35.35442791 13.1953194 35.41223796 23.09697856 35.49029922 32.99871159 C35.52976341 38.08899769 35.56195715 43.17911107 35.57739258 48.26953125 C35.59256604 53.18455437 35.62702406 58.09910262 35.67470551 63.01391411 C35.68951215 64.88648787 35.69743709 66.75912944 35.69828033 68.63176155 C35.70065391 71.26039032 35.72776419 73.88771091 35.76049805 76.51611328 C35.75546768 77.28575912 35.75043732 78.05540497 35.74525452 78.84837341 C35.90049209 86.93589722 40.01112151 92.26085305 45.30639648 98.11352539 C45.96639648 98.44352539 46.62639648 98.77352539 47.30639648 99.11352539 C47.33217773 98.2537207 47.35795898 97.39391602 47.38452148 96.50805664 C48.04073306 82.83201093 50.75453735 71.35244808 60.30639648 61.11352539 C67.70409851 55.04453683 73.80638395 53.29253665 83.30639648 54.11352539 C106.95568513 58.866288 127.09135815 79.79415589 140.30639648 99.11352539 C156.94002654 124.14186571 168.71054089 151.32858227 173.72827148 181.01586914 C174.13989758 184.01013295 174.13989758 184.01013295 175.30639648 186.11352539 C176.30719207 193.15642435 176.48159462 200.10114499 176.50952148 207.20727539 C176.51522156 208.35280884 176.52092163 209.49834229 176.52679443 210.67858887 C176.53620191 213.09569386 176.5427614 215.51281144 176.54663086 217.92993164 C176.55629355 221.57469886 176.58734121 225.21889115 176.61889648 228.86352539 C176.80017001 269.15737634 176.80017001 269.15737634 164.30639648 283.11352539 C157.58677745 289.31625065 151.8236046 291.85657894 142.80639648 291.73852539 C141.92564453 291.73014648 141.04489258 291.72176758 140.13745117 291.71313477 C131.60340928 291.42195511 124.90027422 289.02246538 117.30639648 285.11352539 C116.66782715 284.78723145 116.02925781 284.4609375 115.37133789 284.12475586 C109.5014828 281.11972539 109.5014828 281.11972539 107.36499023 280.01269531 C101.44871469 277.01786857 95.40341047 275.11618675 89.06030273 273.25024414 C71.70334422 267.99439094 58.63210626 259.276947 48.75170898 244.01977539 C45.22809503 236.93445436 45.05372609 230.22334652 45.23803711 222.47827148 C45.25380798 221.44310898 45.26957886 220.40794647 45.28582764 219.34141541 C45.32008149 217.10591632 45.35847383 214.87047756 45.40058899 212.63511276 C45.48494384 207.88007222 45.53168938 203.12489405 45.58065033 198.36937904 C45.67203115 189.52625233 45.77849557 180.68399507 45.95092773 171.84204102 C46.06966165 165.67957576 46.13962983 159.51822773 46.17729187 153.3547554 C46.20078011 151.00936525 46.24241479 148.6640837 46.30256653 146.31934738 C46.38456993 143.04151281 46.40434303 139.76872048 46.40991211 136.48999023 C46.44900696 135.52360123 46.48810181 134.55721222 46.52838135 133.5615387 C46.49433279 130.74828411 46.36374609 128.7254778 45.30639648 126.11352539 C42.24746397 123.46946923 38.92489497 121.86320539 35.30639648 120.11352539 C26.52756468 114.02843894 20.65266297 104.71153054 16.30639648 95.11352539 C15.98928711 95.7799707 15.67217773 96.44641602 15.34545898 97.13305664 C9.31236798 109.04924468 1.36448579 117.09548133 -10.10375977 123.65258789 C-14.15013706 127.49756179 -13.57894724 132.04065589 -13.77973938 137.42202759 C-13.82466552 139.80956265 -13.83231862 142.1943362 -13.82641602 144.58227539 C-13.82737274 145.4614563 -13.82832947 146.34063721 -13.82931519 147.24645996 C-13.82999158 149.09863354 -13.82817527 150.95080957 -13.82397461 152.80297852 C-13.81867059 155.57842613 -13.82391133 158.35370807 -13.83032227 161.12915039 C-13.8334623 170.05680357 -13.658709 178.92184701 -13.05879211 187.82946777 C-12.56460854 195.45359559 -12.50752026 203.07154124 -12.50830078 210.7097168 C-12.50607926 213.14006213 -12.48771844 215.56997628 -12.46899414 218.00024414 C-12.4100346 234.18742147 -15.13709073 246.18611102 -26.69360352 258.11352539 C-34.39218005 264.36861883 -43.50725988 267.68507765 -52.69360352 271.11352539 C-55.69716456 272.25017106 -58.69652713 273.39739518 -61.69360352 274.55102539 C-62.4519751 274.84219238 -63.21034668 275.13335938 -63.99169922 275.43334961 C-69.53888197 277.5918743 -74.90230315 280.02878443 -80.26049805 282.61572266 C-85.73661675 285.22307996 -91.32364588 287.23016162 -97.06079102 289.16821289 C-99.58576583 289.8635018 -99.58576583 289.8635018 -100.69360352 291.11352539 C-120.25065346 292.47165386 -120.25065346 292.47165386 -126.84594727 287.77758789 C-127.76053711 286.95387695 -127.76053711 286.95387695 -128.69360352 286.11352539 C-129.39614258 285.48188477 -130.09868164 284.85024414 -130.82250977 284.19946289 C-140.58985601 274.30620242 -142.56679232 262.39941556 -143.69360352 249.11352539 C-143.80446289 248.07454102 -143.91532227 247.03555664 -144.02954102 245.96508789 C-147.44115324 209.35941081 -144.9447383 167.98388621 -127.56860352 134.81396484 C-126.0583622 131.87902322 -124.96956967 128.79145244 -123.81860352 125.70336914 C-112.6196045 99.92234017 -90.21766604 69.73104366 -63.97485352 57.97290039 C-54.92694359 54.56444117 -43.97808652 52.98720129 -34.81860352 56.73852539 C-25.97759015 61.36180761 -21.26251665 67.38979464 -18.00610352 76.67602539 C-15.6769139 84.22057435 -15.57922311 91.25940394 -15.69360352 99.11352539 C-14.78610352 98.43290039 -13.87860352 97.75227539 -12.94360352 97.05102539 C-12.43313477 96.66817383 -11.92266602 96.28532227 -11.39672852 95.89086914 C-6.23927923 90.50866862 -5.10265364 85.61459476 -5.16357422 78.44018555 C-5.15484283 77.60196259 -5.14611145 76.76373962 -5.13711548 75.90011597 C-5.11286682 73.15071813 -5.11614117 70.40207854 -5.11938477 67.65258789 C-5.10693489 65.73683395 -5.09259935 63.82109142 -5.07646179 61.90536499 C-5.03851218 56.87849553 -5.0232589 51.85182301 -5.01367188 46.8248291 C-4.99388912 38.75761175 -4.9372215 30.69054384 -4.88490868 22.62348557 C-4.86951841 19.80208786 -4.86236493 16.98076463 -4.85676575 14.15933228 C-4.84975409 12.44305381 -4.84265354 10.72677571 -4.83544922 9.01049805 C-4.83597794 8.22092712 -4.83650665 7.4313562 -4.83705139 6.61785889 C-4.80077357 0.14755501 -4.80077357 0.14755501 0 0 Z " fill="#FCF9F9" transform="translate(963.693603515625,379.886474609375)"/>
<path d="M0 0 C0.89993683 -0.01813751 1.79987366 -0.03627502 2.7270813 -0.05496216 C3.91659645 -0.08728188 3.91659645 -0.08728188 5.13014221 -0.12025452 C7.07693481 0.08151245 7.07693481 0.08151245 9.07693481 2.08151245 C9.64968857 9.29820976 9.64968857 9.29820976 7.9704895 11.59469604 C5.28900496 13.70019384 2.7373264 14.10653507 -0.58322144 14.8432312 C-1.93984387 15.15561403 -3.29628245 15.46879613 -4.65255737 15.78268433 C-5.3606958 15.94309204 -6.06883423 16.10349976 -6.7984314 16.26876831 C-26.81472119 20.84692066 -50.63230547 27.07332412 -62.92306519 45.08151245 C-65.80105252 49.81933123 -66.43608597 53.88061713 -66.36056519 59.33151245 C-66.35444214 60.08223022 -66.34831909 60.832948 -66.3420105 61.60641479 C-66.16987843 67.74623309 -64.90888134 72.67476427 -61.92306519 78.08151245 C-61.54150269 78.79307495 -61.15994019 79.50463745 -60.76681519 80.23776245 C-59.85755655 81.87442799 -58.89655048 83.48221519 -57.92306519 85.08151245 C-65.26037564 85.23630803 -72.38527579 84.66624188 -79.67306519 83.83151245 C-80.82452026 83.70018921 -81.97597534 83.56886597 -83.162323 83.43356323 C-90.22129308 82.56893436 -96.7197938 81.41357533 -103.40744019 78.94869995 C-106.22583474 77.97714158 -108.97670855 77.50365127 -111.92306519 77.08151245 C-112.41806519 79.06151245 -112.41806519 79.06151245 -112.92306519 81.08151245 C-101.18841371 87.75415741 -87.79390757 88.77984977 -74.61056519 90.26901245 C-73.07988849 90.44738311 -71.5492888 90.62641584 -70.01876831 90.80612183 C-66.32105371 91.23886057 -62.62238927 91.66272708 -58.92306519 92.08151245 C-58.928302 92.6862439 -58.93353882 93.29097534 -58.93893433 93.91403198 C-58.95983877 96.67818139 -58.97276797 99.4423141 -58.98556519 102.20651245 C-58.99394409 103.15784058 -59.002323 104.1091687 -59.01095581 105.08932495 C-59.01417847 106.01744995 -59.01740112 106.94557495 -59.02072144 107.90182495 C-59.02595825 108.75018921 -59.03119507 109.59855347 -59.03659058 110.47262573 C-58.97572377 113.13569521 -58.97572377 113.13569521 -58.43185425 115.94113159 C-55.93769373 131.33575097 -54.24864963 158.92776342 -63.43087769 172.2729187 C-65.18466689 173.96552921 -66.74743105 174.99369538 -68.92306519 176.08151245 C-70.032948 176.65192261 -70.032948 176.65192261 -71.16525269 177.2338562 C-75.29944644 179.18959432 -79.5514134 180.73638882 -83.92306519 182.08151245 C-84.25306519 183.73151245 -84.58306519 185.38151245 -84.92306519 187.08151245 C-77.56234284 186.65685539 -71.60168695 184.09802328 -64.92306519 181.08151245 C-64.89728394 181.96452026 -64.87150269 182.84752808 -64.84494019 183.7572937 C-64.31519567 194.96620614 -62.18602276 203.63255639 -55.48556519 212.7182312 C-53.76633055 214.5198038 -53.76633055 214.5198038 -49.92306519 214.08151245 C-50.336444 209.67213848 -52.19347989 206.8717864 -54.66915894 203.33932495 C-60.58218311 192.69219731 -58.55834924 180.18529987 -55.48556519 169.01901245 C-55.03189381 167.44382214 -54.57501229 165.86955179 -54.11447144 164.2963562 C-52.27579901 157.95639562 -51.69983634 151.76946271 -51.36056519 145.20651245 C-51.29578979 144.03088745 -51.29578979 144.03088745 -51.22970581 142.83151245 C-51.12453167 140.91500596 -51.02338594 138.99827912 -50.92306519 137.08151245 C-50.35072144 137.80080933 -49.77837769 138.5201062 -49.18869019 139.26119995 C-47.04284203 141.93241094 -44.86110673 144.56984368 -42.67306519 147.20651245 C-28.996406 163.89475387 -28.996406 163.89475387 -28.36056519 171.70651245 C-28.27677612 172.70940308 -28.19298706 173.7122937 -28.10665894 174.74557495 C-28.046073 175.51643433 -27.98548706 176.2872937 -27.92306519 177.08151245 C-26.27306519 177.08151245 -24.62306519 177.08151245 -22.92306519 177.08151245 C-21.34931337 169.99962927 -22.49018966 165.43799076 -25.92306519 159.08151245 C-29.68809557 153.23045172 -34.04212828 147.93259944 -38.54806519 142.64401245 C-49.8736561 128.87756142 -52.98218911 113.47558611 -51.92306519 96.08151245 C-51.59306519 95.09151245 -51.26306519 94.10151245 -50.92306519 93.08151245 C-47.81303496 94.50694297 -45.03812614 96.30017745 -42.20162964 98.20455933 C-28.66007704 107.30331209 -28.66007704 107.30331209 -13.11056519 109.58151245 C-9.99840163 109.56794197 -8.50547688 109.5857094 -6.11056519 111.6244812 C1.28333748 122.19545142 5.47894021 135.91229734 5.38943481 148.76901245 C5.38597046 149.61786011 5.3825061 150.46670776 5.37893677 151.34127808 C5.19620667 162.721022 3.78892244 174.0021723 2.4914856 185.29733276 C2.07775337 189.07404034 1.72289821 192.85196348 1.38552856 196.63619995 C-0.33369333 215.44950597 -2.90933291 236.6209249 -17.92306519 250.08151245 C-29.8909373 259.28756792 -42.18355501 261.4680288 -56.92306519 260.08151245 C-77.37738341 256.82681498 -98.00065422 239.10837379 -114.92306519 228.08151245 C-116.01377319 227.37268921 -117.1044812 226.66386597 -118.22824097 225.93356323 C-124.77670245 221.67663036 -131.31173207 217.3998435 -137.8366394 213.10690308 C-140.80858871 211.15663481 -143.78878033 209.2195814 -146.77072144 207.28463745 C-168.36586744 193.20282638 -188.39134502 177.6244149 -194.54586792 151.13473511 C-195.98604422 143.29532884 -196.6101 133.88057723 -192.61056519 126.76901245 C-189.43322328 122.33286683 -185.6708587 118.28944329 -181.88278198 114.365448 C-178.76058198 111.12783701 -176.30894798 107.8675612 -173.92306519 104.08151245 C-168.06297219 109.94160544 -168.70347872 120.82186568 -168.48556519 128.58151245 C-168.14588807 139.36745013 -166.54171782 150.75573936 -158.92306519 159.08151245 C-156.26454749 160.20365139 -156.26454749 160.20365139 -153.92306519 160.08151245 C-153.34159173 156.24378765 -153.90279569 155.10945148 -156.23556519 151.89401245 C-156.68931519 151.29975464 -157.14306519 150.70549683 -157.61056519 150.0932312 C-161.79085659 143.68593932 -162.28278589 136.51574029 -161.92306519 129.08151245 C-160.970448 129.65901245 -160.01783081 130.23651245 -159.03634644 130.83151245 C-157.76975763 131.58208359 -156.50281155 132.33205206 -155.23556519 133.08151245 C-154.29680542 133.6538562 -154.29680542 133.6538562 -153.33908081 134.23776245 C-149.72741339 136.35559885 -147.1387493 137.59738967 -142.92306519 137.08151245 C-143.06233387 134.64561523 -143.06233387 134.64561523 -143.92306519 132.08151245 C-145.97689956 130.6786999 -145.97689956 130.6786999 -148.54806519 129.76901245 C-155.26300834 126.70453911 -159.73022142 122.1315258 -162.79806519 115.39401245 C-165.77708073 106.62246668 -165.7800781 97.29428297 -161.86056519 88.76901245 C-154.81268052 76.34459862 -142.86463797 70.5703637 -129.98556519 65.70651245 C-119.0835699 61.38910718 -109.24667462 57.27499552 -103.72775269 46.2572937 C-101.99282824 41.56626014 -101.86768708 37.23429726 -101.83834839 32.29147339 C-101.63623692 19.63562079 -101.63623692 19.63562079 -98.23556519 15.33151245 C-83.37276014 2.20473176 -63.19702188 1.05269619 -44.38790894 0.7651062 C-43.22860367 0.7443251 -42.0692984 0.72354401 -40.87486267 0.70213318 C-37.20348386 0.63734569 -33.53203815 0.57819469 -29.86056519 0.51901245 C-27.39376218 0.47574089 -24.9269652 0.4321241 -22.46017456 0.38815308 C-9.94199671 0.17066605 -9.94199671 0.17066605 -5.82977295 0.12127686 C-3.88627671 0.0946894 -1.9429228 0.05418025 0 0 Z " fill="#2FEFE1" transform="translate(617.9230651855469,898.9184875488281)"/>
<path d="M0 0 C4.79106178 3.66303964 8.03731368 8.93006175 9.10546875 14.8671875 C9.19360672 17.25094996 9.22310688 19.63707316 9.21899414 22.02246094 C9.21914017 22.73505569 9.21928619 23.44765045 9.21943665 24.18183899 C9.21874166 26.53011145 9.21096869 28.87830395 9.203125 31.2265625 C9.20125935 32.85752316 9.19983614 34.48848438 9.19883728 36.1194458 C9.19502369 40.40693719 9.18520329 44.69439458 9.1741333 48.98187256 C9.16389428 53.35900411 9.15933432 57.73614117 9.15429688 62.11328125 C9.14357998 70.69793225 9.12651747 79.28255564 9.10546875 87.8671875 C5.37247563 86.06162092 2.41355545 83.81750054 -0.796875 81.20703125 C-5.24501123 78.36585671 -10.30944261 78.65181181 -15.45703125 78.5546875 C-17.40802734 78.49861328 -17.40802734 78.49861328 -19.3984375 78.44140625 C-22.92559373 78.5824183 -22.92559373 78.5824183 -25.359375 80.66796875 C-27.22842344 82.89850696 -27.22842344 82.89850696 -26.89453125 86.3671875 C-25.5806573 91.0157498 -25.5806573 91.0157498 -21.89453125 93.8671875 C-20.0875687 94.07043598 -18.27288885 94.20937331 -16.45703125 94.3046875 C-12.32856085 94.53037722 -11.21627216 94.61767414 -7.83203125 97.2421875 C-4.97483514 101.11322739 -3.64453355 103.11864869 -3.58813477 107.91430664 C-3.57214737 108.94290298 -3.55615997 109.97149933 -3.53968811 111.03126526 C-3.53432541 112.14372116 -3.52896271 113.25617706 -3.5234375 114.40234375 C-3.51440903 115.55077255 -3.50538055 116.69920135 -3.49607849 117.88243103 C-3.48155555 120.31767159 -3.4726842 122.75295135 -3.46899414 125.18823242 C-3.45715448 128.89114612 -3.40803364 132.59236282 -3.35742188 136.29492188 C-3.347951 138.66405439 -3.34071915 141.03319713 -3.3359375 143.40234375 C-3.31640518 144.50063004 -3.29687286 145.59891632 -3.27674866 146.73048401 C-3.32264181 154.66406835 -4.89185799 161.60825927 -10.47901917 167.55311584 C-15.65643164 171.99917045 -19.87716655 172.12417784 -26.39648438 172.296875 C-29.27153639 172.43203905 -31.40819877 172.54394242 -33.83984375 174.16015625 C-35.34443125 176.59535897 -35.30950868 179.02540674 -35.390625 181.83203125 C-34.64668161 184.8839565 -33.40683692 186.01044296 -30.89453125 187.8671875 C-20.39468008 189.69708945 -10.59163258 187.35658876 -1.7734375 181.4453125 C2.35242668 178.14462115 5.15015253 174.21324077 8.10546875 169.8671875 C8.43546875 169.8671875 8.76546875 169.8671875 9.10546875 169.8671875 C9.19873714 177.10897012 9.26951842 184.35062022 9.31271744 191.59288502 C9.33346596 194.95691675 9.36154466 198.3205333 9.40722656 201.68432617 C9.45609579 205.56439906 9.4785188 209.44389276 9.49609375 213.32421875 C9.52706146 215.10926567 9.52706146 215.10926567 9.55865479 216.93037415 C9.56146624 227.54207065 7.44349641 236.33756759 -0.03125 244.1484375 C-8.34490173 251.81721478 -15.63852724 253.44955701 -26.6640625 253.16796875 C-38.66335024 252.52585756 -46.15551615 244.97373971 -54.765625 237.3125 C-57.58166722 235.11169796 -60.11161364 233.6187753 -63.29907227 232.09326172 C-77.47552442 225.30525353 -83.37043222 215.5671752 -88.58081055 200.94067383 C-90.62266761 195.30129187 -93.2345776 190.08209014 -96.02148438 184.77929688 C-99.52458351 177.96513996 -101.28432364 171.6513139 -101.26953125 163.9296875 C-101.27082031 163.22457031 -101.27210938 162.51945313 -101.2734375 161.79296875 C-101.17395597 156.90932993 -100.30989098 153.69387598 -97.80859375 149.58203125 C-96.09866674 146.37409126 -96.02092289 143.29043805 -96.89453125 139.8671875 C-98.23691667 137.4727759 -99.75679967 135.29800587 -101.359375 133.0703125 C-106.36771547 125.88277045 -106.75793645 118.45327255 -105.89453125 109.8671875 C-103.65803709 99.00936906 -99.41033431 88.89922331 -94.4921875 79.01171875 C-89.80651388 69.54038033 -85.81681875 60.698574 -83.7109375 50.3125 C-82.21784209 44.0114945 -79.89218089 38.17494096 -74.89453125 33.8671875 C-71.63013412 31.89909774 -68.21528416 30.30316141 -64.76953125 28.6796875 C-55.74590334 24.19879227 -49.405448 19.65661154 -42.89453125 11.8671875 C-41.64539395 10.42893778 -40.39547768 8.99136397 -39.14453125 7.5546875 C-38.33048828 6.61109375 -38.33048828 6.61109375 -37.5 5.6484375 C-26.80723482 -6.21506839 -13.99368724 -8.36735938 0 0 Z " fill="#9A0911" transform="translate(475.89453125,400.1328125)"/>
<path d="M0 0 C6.98811661 5.0851987 12.66085325 11.75389979 18.359375 18.203125 C23.5999651 23.75380919 28.79789357 27.17724281 35.5625 30.5625 C43.6259973 34.61876841 50.00584606 38.04619036 53 47 C53.28734241 48.99497728 53.53396048 50.99604718 53.75 53 C54.77873363 60.9451303 58.28592833 67.0978869 61.99365234 74.06396484 C64.6759552 79.22424181 66.85968967 84.59839016 69 90 C69.3088916 90.7636084 69.6177832 91.5272168 69.93603516 92.31396484 C79.33485048 115.85505287 79.33485048 115.85505287 74.7421875 128.44921875 C72.90645599 132.27289065 70.97501183 135.77667909 68.328125 139.09765625 C66.17130453 142.1869844 66.37111237 145.42527032 67 149 C67.89023237 150.76503572 67.89023237 150.76503572 69 152.5 C72.96549074 159.64070574 71.94702536 170.43870381 70 178.125 C68.31560774 182.94445727 65.61101947 187.19583083 62.97680664 191.54077148 C60.55671859 195.65542154 59.11273311 199.52233553 57.9375 204.1875 C55.30514715 214.44103162 49.87639021 223.06382695 41 229 C37.92428072 230.6473344 34.82947104 232.23876223 31.7121582 233.80493164 C26.20127462 236.66768378 22.03289772 240.33744311 17.5703125 244.66015625 C8.70378851 252.73165757 0.66455784 254.50585571 -10.94921875 254.265625 C-19.89133535 253.84365142 -25.55351636 250.09118128 -31.89453125 244 C-38.28622927 234.8927197 -39.72172777 226.05690294 -39.48828125 215.140625 C-39.47766914 213.23503815 -39.47766914 213.23503815 -39.46684265 211.29095459 C-39.44379515 207.95634705 -39.39909564 204.62354196 -39.34332275 201.28942871 C-39.29164637 197.87019195 -39.26922683 194.45076691 -39.24414062 191.03125 C-39.18933584 184.35368066 -39.10590929 177.67694405 -39 171 C-36.25887171 173.71063127 -33.70202779 176.32097166 -31.4375 179.4375 C-26.35790681 185.31642004 -19.72982585 188.54857267 -12.0625 189.4765625 C-6.00080242 189.70656751 -1.03003824 189.77021283 4 186 C5.52491998 182.95016004 5.23562548 180.3576631 5 177 C4.036699 175.13802911 4.036699 175.13802911 2 174 C-0.58274362 173.82878441 -3.0463377 173.78379888 -5.625 173.8125 C-12.43728553 173.63566688 -16.29062837 172.38812908 -21.30078125 167.49609375 C-26.18785125 160.31715643 -26.445927 153.47954548 -26.3984375 145.0546875 C-26.40130768 143.92604279 -26.40417786 142.79739807 -26.40713501 141.634552 C-26.40916832 139.25945532 -26.40369 136.8843416 -26.39111328 134.50927734 C-26.37501996 130.87950205 -26.39100324 127.25083515 -26.41015625 123.62109375 C-26.40817428 121.30728922 -26.40433155 118.99348537 -26.3984375 116.6796875 C-26.40754654 115.05762894 -26.40754654 115.05762894 -26.4168396 113.40280151 C-26.35638993 106.91576014 -25.96285174 101.9691157 -21.15234375 97.1484375 C-18.49049346 95.72813989 -16.56658344 95.66666551 -13.5625 95.625 C-9.61223226 95.35038246 -8.20250557 95.13500372 -4.8125 92.875 C-2.53323915 89.25962073 -2.37755894 87.20147717 -3 83 C-3.9463089 81.15384843 -3.9463089 81.15384843 -6 80 C-8.84084946 79.69941219 -11.41440386 79.58137544 -14.25 79.625 C-14.98863281 79.61339844 -15.72726562 79.60179687 -16.48828125 79.58984375 C-23.70940842 79.62805077 -28.77872507 82.11235786 -34.71972656 86.11572266 C-35.92511078 86.92597397 -35.92511078 86.92597397 -37.15484619 87.75259399 C-37.76374695 88.16423798 -38.37264771 88.57588196 -39 89 C-39.13950982 79.39406888 -39.24587753 69.78849071 -39.31087303 60.1817646 C-39.34208051 55.72009417 -39.38435669 51.25912087 -39.45263672 46.79785156 C-39.51821132 42.48597314 -39.55378549 38.17476182 -39.56926346 33.86242294 C-39.58028204 32.22384017 -39.60179838 30.58529064 -39.63438034 28.94699478 C-39.81609244 19.42447757 -39.61682757 11.54358909 -33 4 C-22.97615196 -5.29774543 -12.04323695 -6.22402582 0 0 Z " fill="#9A0911" transform="translate(561,399)"/>
<path d="M0 0 C12.3063838 9.71795621 20.42746613 24.19066298 23.1171875 39.671875 C25.46657638 76.68852221 16.22097093 114.64613579 -7.8828125 143.671875 C-8.73210011 144.73280941 -9.58103585 145.79402556 -10.4296875 146.85546875 C-25.86073786 165.8772536 -45.94761425 180.74022929 -70.8828125 183.671875 C-90.78529397 185.04064477 -112.81790149 184.54102144 -129.0703125 171.3359375 C-135.45702413 165.47227553 -140.71810866 159.59139871 -141.3828125 150.609375 C-140.80447857 146.05499532 -139.32043514 143.5859456 -135.8828125 140.671875 C-133.29563699 139.46731818 -130.65947932 138.85916397 -127.8828125 138.234375 C-109.57969287 133.41662797 -96.32549435 123.16095465 -86.78125 107.015625 C-86.15476562 105.9121875 -85.52828125 104.80875 -84.8828125 103.671875 C-84.38007812 102.7953125 -83.87734375 101.91875 -83.359375 101.015625 C-76.30096504 87.83992641 -73.49045614 73.06145519 -73.5703125 58.234375 C-73.57160156 57.22737549 -73.57289063 56.22037598 -73.57421875 55.18286133 C-73.65611629 48.85371731 -74.37134822 43.24069521 -76.19140625 37.15625 C-78.033185 30.53833314 -77.55379835 25.32424869 -74.5078125 19.171875 C-66.41157561 5.82249836 -52.51163686 -3.85621348 -37.453125 -7.99609375 C-23.55660413 -9.79123702 -11.58844835 -8.330486 0 0 Z " fill="#FBFBFB" transform="translate(1071.8828125,917.328125)"/>
<path d="M0 0 C8.66330926 8.03364518 7.61062267 27.30065055 8.12109375 38.0703125 C8.25985286 44.02801873 8.21722652 49.98660021 8.18359375 55.9453125 C8.17856171 57.5195298 8.17400186 59.09374869 8.16992188 60.66796875 C8.15906735 64.46879018 8.14189977 68.26953306 8.12109375 72.0703125 C3.80032078 73.29977339 2.07664996 72.47369506 -1.80078125 70.35546875 C-12.18567988 63.9332288 -17.74262835 53.52538224 -23.77099609 43.24829102 C-26.54202443 38.4608592 -26.54202443 38.4608592 -29.87890625 34.0703125 C-30.53890625 34.0703125 -31.19890625 34.0703125 -31.87890625 34.0703125 C-31.37866514 39.33951881 -30.1380162 43.0807319 -27.56640625 47.6953125 C-26.97214844 48.78070313 -26.37789062 49.86609375 -25.765625 50.984375 C-23.95671964 54.10398238 -23.95671964 54.10398238 -21.6484375 56.78125 C-19.87890625 59.0703125 -19.87890625 59.0703125 -19.87890625 62.0703125 C-20.45334473 62.15071777 -21.0277832 62.23112305 -21.61962891 62.31396484 C-24.24857635 62.68529109 -26.87621125 63.06522866 -29.50390625 63.4453125 C-30.40753906 63.57164062 -31.31117188 63.69796875 -32.2421875 63.828125 C-36.98440969 64.52042021 -41.37599806 65.34993229 -45.87890625 67.0703125 C-45.54890625 67.7303125 -45.21890625 68.3903125 -44.87890625 69.0703125 C-44.09765381 69.07442139 -43.31640137 69.07853027 -42.51147461 69.08276367 C-38.94570122 69.11581192 -35.38161073 69.18647183 -31.81640625 69.2578125 C-30.58728516 69.26361328 -29.35816406 69.26941406 -28.09179688 69.27539062 C-20.76524954 69.45312358 -16.19146795 69.80421635 -10.87890625 75.0703125 C-9.97765965 78.74462558 -10.17956546 80.78655755 -11.99609375 84.12109375 C-16.35017948 90.36979516 -21.67268834 94.59628984 -28.87890625 97.0703125 C-31.81396484 97.31323242 -31.81396484 97.31323242 -35.02734375 97.30078125 C-36.1978125 97.29884766 -37.36828125 97.29691406 -38.57421875 97.29492188 C-39.78851562 97.28267578 -41.0028125 97.27042969 -42.25390625 97.2578125 C-43.46046875 97.25716797 -44.66703125 97.25652344 -45.91015625 97.25585938 C-51.66070742 97.22742258 -57.2177636 97.11403349 -62.87890625 96.0703125 C-58.99126032 100.76788467 -54.09129608 102.67628016 -48.16601562 103.40307617 C-45.23544221 103.58511942 -42.31429316 103.69039876 -39.37890625 103.7578125 C-38.36570312 103.79197266 -37.3525 103.82613281 -36.30859375 103.86132812 C-33.83214208 103.94309776 -31.35601276 104.012475 -28.87890625 104.0703125 C-30.754588 108.91135778 -32.63103561 112.38998325 -36.19140625 116.2578125 C-37.29935547 117.48564453 -37.29935547 117.48564453 -38.4296875 118.73828125 C-43.66855071 123.72648115 -48.79402915 125.95625511 -55.62890625 127.8203125 C-56.77939453 128.15095703 -56.77939453 128.15095703 -57.953125 128.48828125 C-63.54427892 130.0703125 -63.54427892 130.0703125 -65.87890625 130.0703125 C-65.87890625 131.0603125 -65.87890625 132.0503125 -65.87890625 133.0703125 C-58.94890625 132.7403125 -52.01890625 132.4103125 -44.87890625 132.0703125 C-46.36922803 141.68966215 -49.0273382 150.78639056 -51.87890625 160.0703125 C-41.63304406 149.96408728 -34.99497784 138.47078429 -29.87890625 125.0703125 C-25.7473056 126.44751272 -24.86637054 129.23454685 -22.94140625 132.8828125 C-20.68334397 137.1335386 -18.52220334 140.83454305 -14.87890625 144.0703125 C-15.33080719 141.50652786 -15.79017871 138.94446128 -16.25390625 136.3828125 C-16.38023437 135.66158203 -16.5065625 134.94035156 -16.63671875 134.19726562 C-17.19768797 131.12595916 -17.75574695 128.36922102 -18.94921875 125.47265625 C-21.19949407 119.65786918 -21.04027345 112.26525735 -18.921875 106.4375 C-13.95345368 98.21884341 -4.90209466 92.07804197 4.12109375 89.0703125 C5.11109375 89.0703125 6.10109375 89.0703125 7.12109375 89.0703125 C7.81921916 102.22236391 8.45766944 115.3760838 9.01318359 128.53497314 C9.10945088 130.79676441 9.21060968 133.05828149 9.3125 135.31982422 C10.32106185 159.70956522 10.32106185 159.70956522 1.328125 170.15234375 C-4.68918737 176.04558783 -12.50228537 179.1863515 -20.50390625 181.4453125 C-32.11984637 184.72727653 -43.16293807 190.00818305 -53.828125 195.58984375 C-61.31890834 199.22493579 -68.60323862 200.51169063 -76.87890625 199.0703125 C-82.00438806 195.42900798 -83.44563405 189.95997726 -84.87890625 184.0703125 C-93.20744362 132.23581465 -82.86105133 78.3660421 -52.87890625 35.0703125 C-50.02645171 31.26223767 -47.01947458 27.64291669 -43.87890625 24.0703125 C-43.13769531 23.20792969 -42.39648438 22.34554688 -41.6328125 21.45703125 C-32.64807412 11.19543231 -15.69996488 -7.76838179 0 0 Z " fill="#EB6164" transform="translate(923.87890625,453.9296875)"/>
<path d="M0 0 C25.86956663 9.11213258 44.49407526 41.09029528 55.75 64.5 C62.28844051 78.46684315 66.3469398 93.05654842 70 108 C70.18256348 108.74411133 70.36512695 109.48822266 70.55322266 110.25488281 C70.72772949 110.99834961 70.90223633 111.74181641 71.08203125 112.5078125 C71.23518799 113.15637207 71.38834473 113.80493164 71.54614258 114.47314453 C72.90122519 122.01757971 73.15932064 129.48912273 73.16796875 137.140625 C73.17296135 138.70668488 73.17296135 138.70668488 73.17805481 140.30438232 C73.18309216 142.50288455 73.18546413 144.70139435 73.18530273 146.89990234 C73.1874845 150.22636809 73.2056618 153.5524992 73.22460938 156.87890625 C73.30796072 187.78631096 73.30796072 187.78631096 67 196 C63.27015679 199.63237344 60.87384001 200.54968949 55.6875 200.5 C50.68614486 200.342654 47.21229301 199.67987667 42.9375 197.1328125 C40.78843921 195.87630518 38.63777026 195.01188192 36.3125 194.125 C32.50489191 192.64681982 28.85901757 190.97582316 25.1875 189.1875 C18.52583636 186.04281455 11.65512752 183.80965443 4.59838867 181.71166992 C-4.52650817 178.86612359 -12.64245664 174.11931923 -18 166 C-18.70898438 164.96875 -19.41796875 163.9375 -20.1484375 162.875 C-23.47202785 156.0236772 -22.45099756 147.80812766 -22.3125 140.375 C-22.29548488 138.68669964 -22.27987418 136.99838457 -22.265625 135.31005859 C-22.11077416 120.20104083 -21.64425959 105.09555061 -21 90 C-9.80452065 92.70825368 -0.87080321 98.77553063 6 108 C9.83224487 115.66448973 5.98377828 126.18523466 3.97265625 133.984375 C3.04087166 137.64085672 2.46546416 141.25668821 2 145 C2.66 145 3.32 145 4 145 C4.28987793 144.42024414 4.57975586 143.84048828 4.87841797 143.24316406 C7.91894531 137.16210938 10.95947266 131.08105469 14 125 C14.99 125.33 15.98 125.66 17 126 C18.10242297 128.32669269 19.0647496 130.60925121 20 133 C24.83013045 143.4971647 29.67895161 152.84219834 39 160 C38.65066406 158.96101562 38.30132813 157.92203125 37.94140625 156.8515625 C35.42080878 149.18585636 33.38074086 142.12247178 33 134 C39.27 133.67 45.54 133.34 52 133 C52.33 132.34 52.66 131.68 53 131 C52.10861328 130.85304688 52.10861328 130.85304688 51.19921875 130.703125 C37.85262336 128.29534107 28.36098781 124.29905082 19.734375 113.6328125 C17.88514698 110.82565105 16.92014733 108.22051565 16 105 C16.58378418 104.9906543 17.16756836 104.98130859 17.76904297 104.97167969 C33.05272724 105.25125912 33.05272724 105.25125912 47 100 C47.99 98.515 47.99 98.515 49 97 C48.113125 97.15984375 47.22625 97.3196875 46.3125 97.484375 C40.56930379 98.29905374 34.78975208 98.22403699 29 98.25 C27.85015625 98.270625 26.7003125 98.29125 25.515625 98.3125 C15.61478956 98.35812597 10.0612763 96.5451358 2.734375 89.7578125 C-0.58219425 86.39642475 -1.84107535 84.13233813 -2.5 79.4375 C-2 76 -2 76 0.0625 73.6875 C7.04599905 69.67570267 13.56913123 69.74189812 21.4375 69.875 C22.96407227 69.88853516 22.96407227 69.88853516 24.52148438 69.90234375 C27.01457156 69.92575302 29.50715859 69.958543 32 70 C32 69.34 32 68.68 32 68 C29.14656123 67.35080494 26.29232245 66.70555821 23.4375 66.0625 C22.23770508 65.78889648 22.23770508 65.78889648 21.01367188 65.50976562 C16.35366053 64.46364063 11.73800166 63.60417471 7 63 C7.58796853 58.80169842 10.0764106 55.81839183 12.4375 52.4375 C16.45860785 46.48779761 18.53959881 41.27730919 19 34 C15.31407821 37.44997178 12.67741751 40.83991748 10.125 45.1875 C2.74340444 57.49656842 -4.05076542 68.7080701 -18 74 C-18.99 74 -19.98 74 -21 74 C-21.10306316 67.51210417 -21.17214618 61.02442589 -21.21972656 54.53588867 C-21.23960203 52.33756627 -21.266712 50.139295 -21.30175781 47.94116211 C-21.47279472 36.92185793 -21.47987184 26.1425935 -19.296875 15.30078125 C-19.14929749 14.54194138 -19.00171997 13.7831015 -18.84967041 13.00126648 C-17.65531281 7.82859983 -15.71010017 4.8031812 -12 1 C-8.23546656 -0.88226672 -4.0999079 -0.5021501 0 0 Z " fill="#EB6164" transform="translate(1049,453)"/>
<path d="M0 0 C5.61 0 11.22 0 17 0 C17.05607422 1.97806641 17.05607422 1.97806641 17.11328125 3.99609375 C17.13871296 28.41923608 17.13871296 28.41923608 27.4921875 49.48828125 C32.37601443 52.88826603 38.29042183 52.81460563 44 52 C51.02989423 50.21229962 57.1740847 46.97142659 63.5 43.5 C79.16903779 34.90141595 95.58700413 31.02285017 113.375 35.1875 C115.26292681 35.74997199 117.13884191 36.35445146 119 37 C119.99386719 37.3403125 120.98773437 37.680625 122.01171875 38.03125 C142.64634111 45.85179829 157.36076013 63.23028407 166.3125 82.875 C179.72998913 115.93420238 175.30252706 154.27786182 162.1171875 186.78515625 C160.21659905 191.25882005 158.14786154 195.64046887 156 200 C155.68305176 200.65162109 155.36610352 201.30324219 155.03955078 201.97460938 C148.26384132 215.75785661 139.85614235 228.47391621 129.26171875 239.6171875 C127.26217831 241.72378451 125.41029465 243.88657892 123.5625 246.125 C105.79044962 266.41820172 77.59351413 279.2255527 51 281 C22.95831756 282.55608265 -5.95797366 278.03673261 -27.875 259.1875 C-35.81746129 251.60968542 -39.68244096 242.84851887 -43.60546875 232.80859375 C-44.06566406 231.88175781 -44.52585937 230.95492188 -45 230 C-50.35800972 228.21399676 -54.4900816 228.43697958 -59.6875 230.375 C-65.32420526 234.10706512 -67.38620224 240.04840423 -68.71484375 246.4375 C-70.32063959 257.8773302 -70.607679 269.46640056 -71 281 C-73.47923801 281.02685095 -75.9581884 281.04676547 -78.4375 281.0625 C-79.14455078 281.07087891 -79.85160156 281.07925781 -80.58007812 281.08789062 C-82.38693559 281.09653588 -84.19387603 281.05220011 -86 281 C-88.13866476 278.86133524 -87.17121552 274.23094324 -87.19067383 271.37768555 C-87.15668164 233.19399395 -87.15668164 233.19399395 -74.25390625 219.875 C-65.18860992 212.33367896 -55.45386532 211.09376011 -44 212 C-37.56979336 213.68541029 -32.4315902 216.9443253 -28.953125 222.74609375 C-27.0433248 226.39675029 -25.5643746 230.14389767 -24.125 234 C-19.66952785 245.14721576 -12.17513157 250.95822573 -1.2578125 255.6640625 C2.76708274 257.30545576 6.85354827 258.69999805 11 260 C12.09054687 260.34289063 13.18109375 260.68578125 14.3046875 261.0390625 C32.75059999 265.68309223 54.97925212 265.16232548 73 259 C74.05316406 258.649375 75.10632812 258.29875 76.19140625 257.9375 C88.74321251 253.22443585 99.4579815 245.27995983 109 236 C109.87011719 235.20335937 110.74023438 234.40671875 111.63671875 233.5859375 C131.62106986 214.71341191 144.45486873 188.73625071 151.875 162.5625 C152.16165527 161.55437256 152.16165527 161.55437256 152.45410156 160.52587891 C155.4398053 149.3064604 156.34330616 138.13945452 156.3125 126.5625 C156.32861328 125.35529297 156.34472656 124.14808594 156.36132812 122.90429688 C156.37285094 101.36815158 149.12740632 82.20139772 134.8125 66.1875 C123.87584607 56.01209809 110.10055456 51.44047292 95.40356445 51.58422852 C84.28737442 51.9875342 75.77134626 55.85793159 66.53710938 61.70288086 C55.45024774 68.62640099 42.10543622 72.03207141 29.125 69.421875 C19.54172299 66.42710093 12.43788802 60.28140972 7.625 51.5 C4.22361491 44.00346289 2.57751382 36.04127556 1 28 C0.70222656 26.61554687 0.70222656 26.61554687 0.3984375 25.203125 C-0.20573188 20.34607707 -0.10350167 15.51366006 -0.0625 10.625 C-0.05798828 9.60277344 -0.05347656 8.58054687 -0.04882812 7.52734375 C-0.03710317 5.01820377 -0.01916965 2.50909414 0 0 Z " fill="#F8F9F9" transform="translate(949,847)"/>
<path d="M0 0 C5.28 0 10.56 0 16 0 C16.08636719 1.51464844 16.17273438 3.02929688 16.26171875 4.58984375 C16.99587471 16.01158087 18.14177836 27.20338355 20.375 38.4375 C20.57182373 39.4473999 20.76864746 40.4572998 20.97143555 41.49780273 C23.90004615 55.48927773 29.06858737 63.86572107 39.83203125 73.109375 C53.09162588 84.67269717 62.75791413 98.16711329 65 116 C65.83787216 130.47326139 65.1501859 144.08640066 61 158 C60.69964844 159.03253906 60.39929688 160.06507813 60.08984375 161.12890625 C54.76642535 177.32961246 44.58039588 189.86615842 29.41259766 197.55761719 C19.39002953 202.35268808 8.66329962 203.6957888 -2.23828125 201.00390625 C-7.40515141 199.78964284 -12.39611154 199.65502041 -17.6875 199.6875 C-18.65139648 199.69313965 -19.61529297 199.6987793 -20.60839844 199.70458984 C-34.41449924 199.93784782 -46.77692858 202.26351121 -56.75 212.5625 C-69.25200697 228.13103698 -69.94373867 248.98233505 -70.5625 268.0625 C-70.60568359 269.30966797 -70.64886719 270.55683594 -70.69335938 271.84179688 C-70.7986225 274.89442762 -70.89973337 277.94720106 -71 281 C-76.28 281 -81.56 281 -87 281 C-88.24906181 221.1838179 -88.24906181 221.1838179 -66.75 198.1875 C-54.12781967 186.16739982 -37.53052922 182.58998823 -20.625 182.75 C-19.12054321 182.75580078 -19.12054321 182.75580078 -17.58569336 182.76171875 C-11.08870871 182.83736893 -4.9652781 183.38696687 1.4296875 184.5390625 C10.38596011 186.14520257 18.71483275 184.15801015 26.5234375 179.4921875 C38.06055593 171.02638387 43.67853408 159.43840476 46.60522461 145.63720703 C47.42229709 140.17894051 47.36911195 134.69577255 47.375 129.1875 C47.39949219 127.99318359 47.42398438 126.79886719 47.44921875 125.56835938 C47.49507243 111.52949152 43.34442383 100.47791367 33.44335938 90.41845703 C28.93357641 86.02811244 24.29646881 81.7835349 19.32421875 77.921875 C5.69660776 66.65332944 3.88236902 46.77774723 1.37670898 30.44946289 C1.07098341 28.46155321 0.73700175 26.47800368 0.39453125 24.49609375 C-0.14940047 19.67610474 -0.10555838 14.90822411 -0.0625 10.0625 C-0.05798828 9.09248047 -0.05347656 8.12246094 -0.04882812 7.12304688 C-0.03713169 4.74867094 -0.01919941 2.37432712 0 0 Z " fill="#F8F9FA" transform="translate(922,847)"/>
<path d="M0 0 C10.04294286 5.62733403 16.03101189 14.94779416 21 25 C21.42796875 25.845625 21.8559375 26.69125 22.296875 27.5625 C25.03202482 33.25760647 25.03202482 33.25760647 24.9140625 35.9921875 C23.57238413 38.93929299 21.50685074 40.24723376 18.9375 42.1875 C10.29724557 49.05281844 4.57946394 56.34394166 -1.0703125 65.796875 C-7.80453951 76.97514655 -15.83138186 86.77856405 -26 95 C-32.16254838 92.53764265 -34.54881951 86.36630715 -37.05078125 80.5625 C-41.11274986 68.24183692 -40.26137533 53.11399036 -36 41 C-35.6596875 40.01902344 -35.319375 39.03804687 -34.96875 38.02734375 C-30.93129654 27.45630851 -24.54420584 18.65168908 -17.375 10 C-16.71056885 9.18994507 -16.71056885 9.18994507 -16.03271484 8.36352539 C-11.69359922 3.27183688 -7.02346716 -1.40469343 0 0 Z " fill="#2FEFE1" transform="translate(442,922)"/>
<path d="M0 0 C3.0625 0.5 3.0625 0.5 4.0625 1.5 C4.27610774 3.23847094 4.48381927 4.97790962 4.65869141 6.72070312 C5.43748822 14.47702713 6.92036661 21.30054873 10.0625 28.5 C8.85335937 28.73074219 7.64421875 28.96148438 6.3984375 29.19921875 C-11.15939835 32.65029753 -29.27423907 36.66067341 -39.9375 52.5 C-43.41832259 59.04394646 -43.38937811 64.91186344 -43.46484375 72.20507812 C-43.59745079 77.35725183 -43.98592576 81.082678 -46.9375 85.5 C-52.31526483 90.54784061 -58.88271459 92.82099053 -65.9375 94.5 C-71.21373262 78.98536359 -71.65316866 58.88005517 -65.48828125 43.6328125 C-58.1091522 28.72585659 -49.31782367 22.79195306 -34.9375 15.5 C-34.82429144 10.41696314 -34.82429144 10.41696314 -35.9375 5.5 C-34.9375 4 -34.9375 4 -32.9375 2.5 C-29.85058108 2.09515817 -27.89946738 1.86690774 -24.9375 2.5 C-22.9207342 4.14633943 -20.92010426 5.81267723 -18.9375 7.5 C-15.52450042 8.5005836 -15.52450042 8.5005836 -11.9375 7.5 C-9.80842738 5.80010802 -7.89161655 3.95563706 -5.93359375 2.0625 C-3.9375 0.5 -3.9375 0.5 0 0 Z " fill="#30EFE1" transform="translate(546.9375,858.5)"/>
<path d="M0 0 C3.27669142 0.61251223 4.38618804 1.79299473 6.6953125 4.16796875 C12.93687336 9.9858475 19.5391051 13.66818882 28.1953125 14.04296875 C32.9423628 13.8389408 36.54793078 12.52209994 40.6953125 10.2578125 C42.5703125 9.48046875 42.5703125 9.48046875 45.5703125 10.48046875 C45.03154792 14.31916636 43.55466227 15.61785851 40.5703125 17.98046875 C24.68542973 31.67520128 16.58335947 50.94738967 14.5703125 71.48046875 C13.6009375 70.61421875 12.6315625 69.74796875 11.6328125 68.85546875 C4.81429822 63.05218598 -1.73198488 58.82453045 -10.4296875 56.48046875 C-10.30851562 55.87203125 -10.18734375 55.26359375 -10.0625 54.63671875 C-7.39707052 40.69447222 -6.13994434 27.09419055 -5.94702148 12.90966797 C-5.90943726 11.35916748 -5.90943726 11.35916748 -5.87109375 9.77734375 C-5.85763916 8.85276367 -5.84418457 7.92818359 -5.83032227 6.97558594 C-5.21680138 3.1546332 -3.89742616 0.77071289 0 0 Z " fill="#30EFE1" transform="translate(449.4296875,851.51953125)"/>
<path d="M0 0 C3.91461727 2.08097302 7.2694677 4.73429027 9.91796875 8.265625 C10.68508061 11.12486011 10.72164155 13.41258657 9.91796875 16.265625 C7.35546875 19.328125 7.35546875 19.328125 3.91796875 21.265625 C-1.41631275 21.35920889 -4.23859713 19.87612372 -8.08203125 16.265625 C-8.32953125 17.14347656 -8.57703125 18.02132813 -8.83203125 18.92578125 C-12.90945503 29.82014791 -22.65540909 36.62791434 -32.39453125 42.140625 C-38.92574105 44.8746198 -46.10896903 45.04239377 -53.08203125 44.265625 C-56.39453125 42.203125 -56.39453125 42.203125 -58.08203125 39.265625 C-58.84742435 34.97942363 -58.59464756 33.07874053 -56.26953125 29.390625 C-52.30650122 26.74860498 -49.51786126 26.79699507 -44.859375 26.546875 C-37.68043843 25.81989408 -33.20049847 21.95384162 -28.7265625 16.55078125 C-26.99473515 14.14432282 -25.57850581 11.67164773 -24.14453125 9.078125 C-18.85949815 0.05184478 -10.21969554 -3.60469561 0 0 Z " fill="#FAF6F6" transform="translate(470.08203125,422.734375)"/>
<path d="M0 0 C5.62983095 2.44681114 8.46163262 6.38064932 11.78125 11.3828125 C18.195701 21.08291166 18.195701 21.08291166 28.1640625 26.0546875 C30.59529704 26.34907498 33.0339298 26.58924233 35.4765625 26.765625 C39.3497342 27.48898331 41.08337573 28.53505633 43.78125 31.3828125 C44.4453125 33.6015625 44.4453125 33.6015625 44.40625 35.8828125 C44.42558594 37.01203125 44.42558594 37.01203125 44.4453125 38.1640625 C43.44247751 41.51471117 41.71499975 42.57742804 38.78125 44.3828125 C29.41375812 46.07243968 20.30316429 43.87825504 12.34375 38.83984375 C4.81414585 33.28167312 -0.90599924 26.66329397 -5.21875 18.3828125 C-7.19875 18.7128125 -9.17875 19.0428125 -11.21875 19.3828125 C-11.21875 20.0428125 -11.21875 20.7028125 -11.21875 21.3828125 C-14.63754139 21.86144329 -17.15334454 22.14446407 -20.0546875 20.0703125 C-22.99174888 16.9815719 -24.15282067 15.13440689 -24.53125 10.8203125 C-22.54449011 5.61689375 -18.98822097 3.02211552 -14.28515625 0.23828125 C-9.77307919 -1.62966748 -4.64730664 -1.29273671 0 0 Z " fill="#FAF6F6" transform="translate(550.21875,422.6171875)"/>
<path d="M0 0 C4.06429314 0.82944758 6.42645843 2.53351669 9.0625 5.625 C10.05455498 7.22963538 11.01070108 8.85681056 11.9375 10.5 C16.91179295 19.15990897 23.52856875 23.83528256 33.0625 26.625 C34.82934067 26.95933666 36.60035314 27.27243885 38.375 27.5625 C41.89497594 28.19997596 43.16209602 28.69670913 46.1875 30.875 C48.0625 33.625 48.0625 33.625 48.6875 36.625 C48.0625 39.625 48.0625 39.625 46.3125 42.5 C41.31292454 45.76895319 36.86856757 45.37079739 31.0625 44.625 C18.44829643 41.77765771 7.15527619 35.17297609 -0.5625 24.75 C-1.31789063 23.74195313 -2.07328125 22.73390625 -2.8515625 21.6953125 C-6.48127702 16.352699 -8.89526253 12.20961738 -7.9375 5.625 C-5.51605492 2.27770827 -4.06319154 0.86450884 0 0 Z " fill="#FAF6F6" transform="translate(400.9375,574.375)"/>
<path d="M0 0 C4.63235294 2.26470588 4.63235294 2.26470588 6 5 C7.06380116 12.14266495 4.00241275 17.21787362 0 23 C-7.18134265 31.86056208 -14.61351745 36.66509468 -25 41 C-26.23943359 41.53947266 -26.23943359 41.53947266 -27.50390625 42.08984375 C-33.15477783 44.28347368 -38.99672372 45.0084743 -45 44 C-48.63397247 41.57735169 -49.73794164 40.25788015 -50.625 36 C-49.99169426 32.96013246 -49.26831814 31.16813323 -46.93359375 29.078125 C-44.32449133 27.62335274 -41.79853534 27.16041686 -38.875 26.5625 C-25.15440209 23.74086292 -18.23179482 16.93566626 -10.6875 5.5625 C-10.130625 4.716875 -9.57375 3.87125 -9 3 C-6.41670527 -0.52267463 -4.25603266 -0.51072392 0 0 Z " fill="#FAF6F6" transform="translate(608,575)"/>
<path d="M0 0 C2.83738237 1.97895523 4.98008058 4.46882751 7.25 7.0625 C15.48912803 15.86270822 23.12397249 21.13378496 34.92578125 24.26953125 C38.17303974 25.41310439 39.50949934 26.94802246 41 30 C41.07845521 33.84430543 40.4754149 35.43544481 38 38.375 C33.01769355 41.07374933 28.77496164 40.69374041 23.359375 39.33984375 C9.74994057 34.84873039 -3.43830314 25.44595824 -11 13.13671875 C-12.53004846 9.86743551 -12.69029542 7.52050662 -12 4 C-9.17174104 -0.59592081 -5.03147318 -1.15648274 0 0 Z " fill="#FAF6F6" transform="translate(557,518)"/>
<path d="M0 0 C3 1.5625 3 1.5625 5 4 C5.86805856 7.6892489 5.65409827 9.87405995 3.73828125 13.171875 C-5.18297111 25.23324183 -18.11457748 34.52133975 -32.5625 38.75 C-41.68380463 39.68551842 -41.68380463 39.68551842 -46 37.4375 C-48 35 -48 35 -48.5625 31.5 C-47.90139226 27.38644073 -47.15470599 26.59211675 -44 24 C-41.15234375 22.76171875 -41.15234375 22.76171875 -37.9375 21.6875 C-27.42888531 17.79368295 -19.63520849 12.41495119 -12.40991211 3.91186523 C-8.3313874 -0.58489624 -5.73421604 -0.66772281 0 0 Z " fill="#FAF6F7" transform="translate(457,519)"/>
<path d="M0 0 C4.33529412 2.36470588 4.33529412 2.36470588 6 5 C6.49055596 7.52529678 6.62735002 9.93835642 6.72265625 12.5078125 C7.01714517 15.15406508 7.63830231 16.53239114 9.0625 18.75 C11.17823387 22.29897294 11.62926113 23.95474985 11 28 C9.22015595 31.1359157 8.47691793 31.84102736 5 33 C1.67111331 33.50247346 -0.80241254 33.85420338 -3.6484375 31.82421875 C-9.51345503 25.58705544 -12.16164391 17.51012373 -12.5 9.0625 C-12.34970591 5.7748168 -12.12300221 4.22037895 -10.5 1.3125 C-6.94514277 -0.55380004 -3.86205605 -0.82281808 0 0 Z " fill="#F9F5F5" transform="translate(408,478)"/>
<path d="M0 0 C3.60067126 0.87838956 4.94522296 2.42198203 6.9375 5.47265625 C8.40616398 12.64651491 6.25562017 20.71421075 2.47265625 26.84765625 C-1.39003165 32.13642207 -1.39003165 32.13642207 -4.0625 33.47265625 C-6.99657542 33.75659903 -9.21296384 33.96259626 -12.0625 33.47265625 C-15.2961123 30.8049261 -15.96070508 29.17249633 -16.5625 25.03515625 C-16.0625 21.47265625 -16.0625 21.47265625 -14.125 18.66015625 C-11.97690898 15.34037921 -11.80447795 14.20162798 -11.625 10.41015625 C-11.3688217 6.7178472 -11.12106797 5.56139559 -9 2.34765625 C-5.7197186 0.25385961 -3.8292651 -0.28284344 0 0 Z " fill="#FAF6F6" transform="translate(604.0625,477.52734375)"/>
<path d="M0 0 C1.72750512 3.45501025 2.18863896 6.36633687 1 10 C-2.97542761 14.22017108 -7.45142928 18.15047643 -13 20 C-13.67031719 18.0429132 -14.33614683 16.08428887 -15 14.125 C-15.37125 13.03445313 -15.7425 11.94390625 -16.125 10.8203125 C-17 8 -17 8 -17 6 C-14.5433053 4.99580363 -12.08481647 3.99649499 -9.625 3 C-8.92632813 2.71382812 -8.22765625 2.42765625 -7.5078125 2.1328125 C-2.2265625 0 -2.2265625 0 0 0 Z " fill="#34EFE1" transform="translate(638,946)"/>
<path d="M0 0 C0.66 0.33 1.32 0.66 2 1 C2 4.3 2 7.6 2 11 C1.01 11.33 0.02 11.66 -1 12 C-0.67 8.04 -0.34 4.08 0 0 Z " fill="#BD6065" transform="translate(503,621)"/>
</svg>
